<svg width="24" height="24" viewBox="0 0 24 24" fill="none" xmlns="http://www.w3.org/2000/svg">
<g id="34">
<g id="Group 1696">
<g id="Group">
<path id="Vector" d="M17.6401 21.03H6.6001C5.5001 21.03 4.6001 20.13 4.6001 19.03V12.88C4.6001 11.78 5.5001 10.88 6.6001 10.88H17.6401C18.7401 10.88 19.6401 11.78 19.6401 12.88V19.03C19.6401 20.13 18.7401 21.03 17.6401 21.03Z" fill="#C4C4C4" stroke="#C4C4C4" stroke-width="1.2" stroke-miterlimit="10" stroke-linecap="round" stroke-linejoin="round"/>
<path id="Vector_2" d="M16.5901 10.88V8.06998C16.5901 5.59998 14.5901 3.59998 12.1201 3.59998C9.65009 3.59998 7.65009 5.59998 7.65009 8.06998V10.88" stroke="#C4C4C4" stroke-width="1.2" stroke-miterlimit="10" stroke-linecap="round" stroke-linejoin="round"/>
</g>
<path id="Vector_3" d="M12.1199 15.95C12.7937 15.95 13.3399 15.4038 13.3399 14.73C13.3399 14.0562 12.7937 13.51 12.1199 13.51C11.4461 13.51 10.8999 14.0562 10.8999 14.73C10.8999 15.4038 11.4461 15.95 12.1199 15.95Z" fill="#191927"/>
<path id="Vector_4" d="M12.1201 15.52V17.5" stroke="#191927" stroke-width="1.2" stroke-miterlimit="10" stroke-linecap="round" stroke-linejoin="round"/>
</g>
</g>
</svg>
