<svg width="16" height="16" viewBox="0 0 16 16" fill="none" xmlns="http://www.w3.org/2000/svg">
<g id="btnSigninwithGoogle">
<g id="iconGoogle">
<path id="Vector" d="M13.1469 14.0844C11.7594 15.2563 9.95942 16 8.00001 16C5.08439 16 2.52498 14.3938 1.13751 12.05L1.65695 9.65559L3.95939 9.22815C4.49376 10.9531 6.10623 12.2188 8.00001 12.2188C8.91873 12.2188 9.77189 11.9282 10.475 11.4125L12.6875 11.75L13.1469 14.0844Z" fill="#59C36A"/>
<path id="Vector_2" d="M13.1469 14.0844L12.6875 11.75L10.475 11.4125C9.77188 11.9281 8.91872 12.2187 8 12.2187V16C9.95941 16 11.7594 15.2562 13.1469 14.0844Z" fill="#00A66C"/>
<path id="Vector_3" d="M3.78125 7.99995C3.78125 8.43117 3.84687 8.84367 3.95937 9.22808L1.1375 12.05C0.434375 10.8687 0 9.48117 0 7.99995C0 6.51867 0.434375 5.1312 1.1375 3.94995L3.40228 4.33973L3.95937 6.77183C3.84687 7.15617 3.78125 7.56867 3.78125 7.99995Z" fill="#FFDA2D"/>
<path id="Vector_4" d="M16 8C16 10.4375 14.8719 12.6219 13.1469 14.0844L10.475 11.4125C11.0187 11.0187 11.4781 10.4937 11.7781 9.875H8C7.73747 9.875 7.53125 9.66872 7.53125 9.40625V6.59375C7.53125 6.33122 7.73747 6.125 8 6.125H15.4C15.625 6.125 15.8219 6.28434 15.8594 6.50934C15.9531 6.99687 16 7.50309 16 8Z" fill="#4086F4"/>
<path id="Vector_5" d="M11.7782 9.875C11.4782 10.4937 11.0187 11.0187 10.475 11.4125L13.1469 14.0844C14.8719 12.6219 16 10.4375 16 8C16 7.50309 15.9531 6.99687 15.8593 6.50934C15.8219 6.28434 15.625 6.125 15.4 6.125H8V9.875H11.7782Z" fill="#376AED"/>
<path id="Vector_6" d="M13.2781 2.23434C13.2875 2.36559 13.2313 2.4875 13.1469 2.58122L11.1406 4.57809C10.9813 4.74684 10.7188 4.76559 10.5313 4.62497C9.7906 4.07187 8.91873 3.78125 8.00001 3.78125C6.10623 3.78125 4.49376 5.04684 3.95939 6.77187L1.13751 3.95C2.52498 1.60625 5.08439 0 8.00001 0C9.86564 0 11.6844 0.6875 13.1094 1.88747C13.2125 1.97187 13.2688 2.10309 13.2781 2.23434Z" fill="#FF7F23"/>
<path id="Vector_7" d="M10.5313 4.62497C10.7188 4.76563 10.9812 4.74684 11.1406 4.57809L13.1469 2.58122C13.2313 2.4875 13.2875 2.36563 13.2781 2.23434C13.2687 2.10306 13.2125 1.97188 13.1094 1.88747C11.6844 0.6875 9.86563 0 8 0V3.78125C8.91872 3.78125 9.7906 4.07188 10.5313 4.62497Z" fill="#F03800"/>
</g>
</g>
</svg>
