<svg width="16" height="12" viewBox="0 0 16 12" fill="none" xmlns="http://www.w3.org/2000/svg">
<path fill-rule="evenodd" clip-rule="evenodd" d="M8.33067 2.60802C10.5466 2.60811 12.6777 3.45955 14.2837 4.98635C14.4046 5.10422 14.5979 5.10274 14.717 4.98302L15.873 3.81635C15.9333 3.75563 15.9669 3.67338 15.9664 3.58779C15.9659 3.50221 15.9313 3.42036 15.8703 3.36035C11.6552 -0.679198 5.00543 -0.679198 0.790334 3.36035C0.729275 3.42032 0.694631 3.50215 0.694068 3.58773C0.693505 3.67331 0.727069 3.75558 0.787334 3.81635L1.94367 4.98302C2.0627 5.10292 2.25614 5.10441 2.377 4.98635C3.98315 3.45945 6.11456 2.60801 8.33067 2.60802ZM8.33067 6.40368C9.54816 6.40361 10.7222 6.85614 11.6247 7.67335C11.7467 7.78933 11.939 7.78682 12.058 7.66768L13.2127 6.50102C13.2735 6.43982 13.3072 6.3568 13.3063 6.27054C13.3055 6.18427 13.27 6.10196 13.208 6.04202C10.4598 3.48563 6.20387 3.48563 3.45567 6.04202C3.39359 6.10196 3.35817 6.18432 3.35736 6.27061C3.35654 6.3569 3.3904 6.43991 3.45133 6.50102L4.60567 7.66768C4.72466 7.78682 4.91694 7.78933 5.039 7.67335C5.94087 6.85668 7.11398 6.40419 8.33067 6.40368ZM10.6437 8.9575C10.6454 9.04401 10.6114 9.12741 10.5497 9.18802L8.55233 11.2037C8.49378 11.2629 8.41396 11.2963 8.33067 11.2963C8.24738 11.2963 8.16755 11.2629 8.109 11.2037L6.11133 9.18802C6.04962 9.12737 6.01567 9.04394 6.0175 8.95743C6.01933 8.87092 6.05678 8.789 6.121 8.73102C7.39657 7.65213 9.26476 7.65213 10.5403 8.73102C10.6045 8.78905 10.6419 8.87099 10.6437 8.9575Z" fill="#1A1A1A"/>
</svg>
